<svg width="877" height="204" viewBox="0 0 877 204" fill="none" xmlns="http://www.w3.org/2000/svg">
<path d="M0.695312 200V0.9375H49.2305V76.6797H102.551V0.9375H151.086V200H102.551V117.422H49.2305V200H0.695312ZM195.902 139.297V134.922C195.902 115.872 202.419 100.469 215.453 88.7109C228.578 76.9531 245.987 71.0742 267.68 71.0742C289.464 71.0742 306.827 76.9531 319.77 88.7109C332.803 100.469 339.32 115.872 339.32 134.922V139.297C339.32 158.529 332.803 173.978 319.77 185.645C306.827 197.311 289.464 203.145 267.68 203.145C245.896 203.145 228.487 197.311 215.453 185.645C202.419 173.978 195.902 158.529 195.902 139.297ZM243.344 133.418V140.664C243.344 149.505 245.395 156.751 249.496 162.402C253.598 167.962 259.613 170.742 267.543 170.742C275.564 170.742 281.625 167.962 285.727 162.402C289.919 156.751 292.016 149.46 292.016 140.527V133.418C292.016 124.668 289.919 117.604 285.727 112.227C281.625 106.758 275.564 104.023 267.543 104.023C259.613 104.023 253.598 106.758 249.496 112.227C245.395 117.604 243.344 124.668 243.344 133.418ZM374.293 108.672V75.0391H467.398V108.672H374.293ZM393.844 160.625V80.7812L395.211 79.2773V32.9297H439.918V148.457C439.918 157.663 441.057 163.542 443.336 166.094C445.615 168.646 449.352 169.922 454.547 169.922C457.008 169.922 459.286 169.785 461.383 169.512C463.57 169.147 465.667 168.6 467.672 167.871V199.18C465.029 200 461.018 200.775 455.641 201.504C450.263 202.324 443.427 202.734 435.133 202.734C421.734 202.734 411.48 199.453 404.371 192.891C397.353 186.237 393.844 175.482 393.844 160.625Z" fill="#222E42"/>
<path d="M510.574 200V0.9375H558.016V200H510.574ZM602.285 139.16V134.785C602.285 115.371 608.62 99.9219 621.289 88.4375C633.958 76.9531 651.003 71.2109 672.422 71.2109C693.385 71.2109 709.518 76.7708 720.82 87.8906C732.122 98.9193 737.773 114.095 737.773 133.418V145.723H626.758V122.891H692.52V122.07C692.52 116.602 690.833 112.09 687.461 108.535C684.18 104.98 679.03 103.203 672.012 103.203C664.447 103.203 658.704 105.846 654.785 111.133C650.957 116.419 649.043 122.617 649.043 129.727V139.434C649.043 149.551 651.139 157.344 655.332 162.812C659.616 168.19 665.677 170.879 673.516 170.879C679.44 170.879 684.316 169.74 688.145 167.461C692.064 165.091 695.072 161.855 697.168 157.754L736.953 167.324C732.852 178.626 725.788 187.422 715.762 193.711C705.736 200 691.79 203.145 673.926 203.145C651.139 203.145 633.503 197.448 621.016 186.055C608.529 174.661 602.285 159.03 602.285 139.16ZM781.77 200V75.0391H829.348V92.5391H829.484C833.13 86.7057 837.824 81.9661 843.566 78.3203C849.309 74.6745 855.871 72.8516 863.254 72.8516C866.079 72.8516 868.723 73.0339 871.184 73.3984C873.645 73.6719 875.331 73.9909 876.242 74.3555V108.398C874.51 107.76 872.414 107.259 869.953 106.895C867.492 106.53 864.758 106.348 861.75 106.348C855.826 106.348 849.901 108.262 843.977 112.09C838.143 115.827 833.495 120.885 830.031 127.266V200H781.77Z" fill="#E2EDFF"/>
</svg>
