<svg width="846" height="185" viewBox="0 0 846 185" fill="none" xmlns="http://www.w3.org/2000/svg">
<path d="M0.847657 182V5.49999H40.0977V182H0.847657ZM110.098 182V5.49999H149.598V182H110.098ZM24.3477 108.25V74.25H123.098V108.25H24.3477ZM263.465 184.75C250.965 184.75 239.632 182 229.465 176.5C219.465 170.833 211.548 163.167 205.715 153.5C199.882 143.833 196.965 133 196.965 121C196.965 109 199.882 98.25 205.715 88.75C211.548 79.25 219.465 71.75 229.465 66.25C239.465 60.5833 250.798 57.75 263.465 57.75C276.132 57.75 287.465 60.5 297.465 66C307.465 71.5 315.382 79.0833 321.215 88.75C327.048 98.25 329.965 109 329.965 121C329.965 133 327.048 143.833 321.215 153.5C315.382 163.167 307.465 170.833 297.465 176.5C287.465 182 276.132 184.75 263.465 184.75ZM263.465 150C268.965 150 273.798 148.833 277.965 146.5C282.132 144 285.298 140.583 287.465 136.25C289.798 131.75 290.965 126.667 290.965 121C290.965 115.333 289.798 110.417 287.465 106.25C285.132 101.917 281.882 98.5833 277.715 96.25C273.715 93.75 268.965 92.5 263.465 92.5C258.132 92.5 253.382 93.75 249.215 96.25C245.048 98.5833 241.798 101.917 239.465 106.25C237.132 110.583 235.965 115.583 235.965 121.25C235.965 126.75 237.132 131.75 239.465 136.25C241.798 140.583 245.048 144 249.215 146.5C253.382 148.833 258.132 150 263.465 150ZM388.816 182V10.25H427.066V182H388.816ZM361.316 93V60.5H454.566V93H361.316Z" fill="#222E42"/>
<path d="M496.42 182V0.499997H534.67V182H496.42ZM646.605 184.75C633.439 184.75 621.689 182.083 611.355 176.75C601.189 171.25 593.189 163.667 587.355 154C581.522 144.333 578.605 133.417 578.605 121.25C578.605 109.083 581.439 98.25 587.105 88.75C592.939 79.0833 600.772 71.5 610.605 66C620.439 60.5 631.522 57.75 643.855 57.75C655.855 57.75 666.439 60.3333 675.605 65.5C684.772 70.6667 691.939 77.8333 697.105 87C702.439 96.1667 705.105 106.667 705.105 118.5C705.105 120.667 704.939 123 704.605 125.5C704.439 127.833 704.022 130.583 703.355 133.75L598.605 134V107.75L687.105 107.5L670.605 118.5C670.439 111.5 669.355 105.75 667.355 101.25C665.355 96.5833 662.355 93.0833 658.355 90.75C654.522 88.25 649.772 87 644.105 87C638.105 87 632.855 88.4167 628.355 91.25C624.022 93.9167 620.605 97.75 618.105 102.75C615.772 107.75 614.605 113.833 614.605 121C614.605 128.167 615.855 134.333 618.355 139.5C621.022 144.5 624.689 148.417 629.355 151.25C634.189 153.917 639.855 155.25 646.355 155.25C652.355 155.25 657.772 154.25 662.605 152.25C667.439 150.083 671.689 146.917 675.355 142.75L696.355 163.75C690.355 170.75 683.105 176 674.605 179.5C666.105 183 656.772 184.75 646.605 184.75ZM748.568 182V60.5H786.818V182H748.568ZM786.818 115.25L770.818 102.75C773.985 88.5833 779.318 77.5833 786.818 69.75C794.318 61.9167 804.735 58 818.068 58C823.902 58 828.985 58.9167 833.318 60.75C837.818 62.4167 841.735 65.0833 845.068 68.75L822.318 97.5C820.652 95.6667 818.568 94.25 816.068 93.25C813.568 92.25 810.735 91.75 807.568 91.75C801.235 91.75 796.152 93.75 792.318 97.75C788.652 101.583 786.818 107.417 786.818 115.25Z" fill="#E2EDFF"/>
</svg>
