<svg width="820" height="185" viewBox="0 0 820 185" fill="none" xmlns="http://www.w3.org/2000/svg">
<path d="M0.347657 182V5.49999H39.5977V182H0.347657ZM109.598 182V5.49999H149.098V182H109.598ZM23.8477 108.25V74.25H122.598V108.25H23.8477ZM257.965 184.75C245.465 184.75 234.132 182 223.965 176.5C213.965 170.833 206.048 163.167 200.215 153.5C194.382 143.833 191.465 133 191.465 121C191.465 109 194.382 98.25 200.215 88.75C206.048 79.25 213.965 71.75 223.965 66.25C233.965 60.5833 245.298 57.75 257.965 57.75C270.632 57.75 281.965 60.5 291.965 66C301.965 71.5 309.882 79.0833 315.715 88.75C321.548 98.25 324.465 109 324.465 121C324.465 133 321.548 143.833 315.715 153.5C309.882 163.167 301.965 170.833 291.965 176.5C281.965 182 270.632 184.75 257.965 184.75ZM257.965 150C263.465 150 268.298 148.833 272.465 146.5C276.632 144 279.798 140.583 281.965 136.25C284.298 131.75 285.465 126.667 285.465 121C285.465 115.333 284.298 110.417 281.965 106.25C279.632 101.917 276.382 98.5833 272.215 96.25C268.215 93.75 263.465 92.5 257.965 92.5C252.632 92.5 247.882 93.75 243.715 96.25C239.548 98.5833 236.298 101.917 233.965 106.25C231.632 110.583 230.465 115.583 230.465 121.25C230.465 126.75 231.632 131.75 233.965 136.25C236.298 140.583 239.548 144 243.715 146.5C247.882 148.833 252.632 150 257.965 150ZM378.316 182V10.25H416.566V182H378.316ZM350.816 93V60.5H444.066V93H350.816Z" fill="#A1F0E7"/>
<path d="M480.92 182V0.499997H519.17V182H480.92ZM626.105 184.75C612.939 184.75 601.189 182.083 590.855 176.75C580.689 171.25 572.689 163.667 566.855 154C561.022 144.333 558.105 133.417 558.105 121.25C558.105 109.083 560.939 98.25 566.605 88.75C572.439 79.0833 580.272 71.5 590.105 66C599.939 60.5 611.022 57.75 623.355 57.75C635.355 57.75 645.939 60.3333 655.105 65.5C664.272 70.6667 671.439 77.8333 676.605 87C681.939 96.1667 684.605 106.667 684.605 118.5C684.605 120.667 684.439 123 684.105 125.5C683.939 127.833 683.522 130.583 682.855 133.75L578.105 134V107.75L666.605 107.5L650.105 118.5C649.939 111.5 648.855 105.75 646.855 101.25C644.855 96.5833 641.855 93.0833 637.855 90.75C634.022 88.25 629.272 87 623.605 87C617.605 87 612.355 88.4167 607.855 91.25C603.522 93.9167 600.105 97.75 597.605 102.75C595.272 107.75 594.105 113.833 594.105 121C594.105 128.167 595.355 134.333 597.855 139.5C600.522 144.5 604.189 148.417 608.855 151.25C613.689 153.917 619.355 155.25 625.855 155.25C631.855 155.25 637.272 154.25 642.105 152.25C646.939 150.083 651.189 146.917 654.855 142.75L675.855 163.75C669.855 170.75 662.605 176 654.105 179.5C645.605 183 636.272 184.75 626.105 184.75ZM723.068 182V60.5H761.318V182H723.068ZM761.318 115.25L745.318 102.75C748.485 88.5833 753.818 77.5833 761.318 69.75C768.818 61.9167 779.235 58 792.568 58C798.402 58 803.485 58.9167 807.818 60.75C812.318 62.4167 816.235 65.0833 819.568 68.75L796.818 97.5C795.152 95.6667 793.068 94.25 790.568 93.25C788.068 92.25 785.235 91.75 782.068 91.75C775.735 91.75 770.652 93.75 766.818 97.75C763.152 101.583 761.318 107.417 761.318 115.25Z" fill="white"/>
</svg>
