<svg width="761" height="209" viewBox="0 0 761 209" fill="none" xmlns="http://www.w3.org/2000/svg">
<path d="M0.247658 204V13.04H21.2477V95.64H122.048V13.04H143.048V204H122.048V113H21.2477V204H0.247658ZM254.186 208.48C241.679 208.48 230.479 205.493 220.586 199.52C210.692 193.547 202.946 185.24 197.346 174.6C191.746 163.773 188.946 151.64 188.946 138.2C188.946 124.76 191.652 112.813 197.066 102.36C202.666 91.72 210.319 83.4133 220.026 77.44C229.919 71.4667 241.119 68.48 253.626 68.48C266.132 68.48 277.332 71.4667 287.226 77.44C297.119 83.4133 304.866 91.72 310.466 102.36C316.066 113 318.866 125.04 318.866 138.48C318.866 151.92 316.066 163.96 310.466 174.6C305.052 185.24 297.399 193.547 287.506 199.52C277.799 205.493 266.692 208.48 254.186 208.48ZM253.626 191.12C262.586 191.12 270.519 188.88 277.426 184.4C284.519 179.92 290.026 173.667 293.946 165.64C297.866 157.613 299.826 148.56 299.826 138.48C299.826 128.4 297.866 119.347 293.946 111.32C290.026 103.293 284.519 97.04 277.426 92.56C270.519 88.08 262.586 85.84 253.626 85.84C244.852 85.84 237.012 88.08 230.106 92.56C223.199 97.04 217.786 103.293 213.866 111.32C209.946 119.16 207.986 128.12 207.986 138.2C207.986 148.467 209.946 157.613 213.866 165.64C217.786 173.667 223.199 179.92 230.106 184.4C237.012 188.88 244.852 191.12 253.626 191.12ZM366.816 204V90.32H344.416V72.96H366.816V29.56H385.856V72.96H416.096V90.32H385.856V204H366.816Z" fill="#222E42"/>
<path d="M452.325 204V0.719997H471.365V204H452.325ZM578.36 68.48C590.12 68.48 600.76 71.3733 610.28 77.16C619.8 82.9467 627.267 90.88 632.68 100.96C638.093 110.853 640.8 121.96 640.8 134.28C640.8 137.827 640.707 140.533 640.52 142.4H532.72C533.467 155.84 537.853 167.32 545.88 176.84C553.907 186.36 564.827 191.12 578.64 191.12C589.84 191.12 599.08 189.067 606.36 184.96C613.827 180.667 619.8 174.787 624.28 167.32L639.4 177.4C633.24 187.107 625.12 194.76 615.04 200.36C604.96 205.773 593.013 208.48 579.2 208.48C566.507 208.48 555.213 205.493 545.32 199.52C535.427 193.547 527.68 185.24 522.08 174.6C516.48 163.96 513.68 151.92 513.68 138.48C513.68 125.04 516.387 113 521.8 102.36C527.4 91.72 535.053 83.4133 544.76 77.44C554.653 71.4667 565.853 68.48 578.36 68.48ZM621.76 126.72C619.893 113.093 615.32 102.92 608.04 96.2C600.76 89.2933 590.867 85.84 578.36 85.84C566.227 85.84 556.24 89.76 548.4 97.6C540.747 105.253 535.893 114.96 533.84 126.72H621.76ZM747.31 68.48C751.79 68.48 756.083 69.1333 760.19 70.44V87.8C756.27 85.9333 751.976 85 747.31 85C739.283 85 731.816 87.24 724.91 91.72C718.003 96.2 712.403 102.733 708.11 111.32C704.003 119.72 701.95 129.707 701.95 141.28V204H682.91V72.96H701.95V99.28C706.99 89.5733 713.336 82.0133 720.99 76.6C728.83 71.1867 737.603 68.48 747.31 68.48Z" fill="white"/>
</svg>
