<svg width="842" height="218" viewBox="0 0 842 218" fill="none" xmlns="http://www.w3.org/2000/svg">
<path d="M0.00976562 214V0.71875H50.2539V97.9844C53.4766 91.6367 58.8477 86.4609 66.3672 82.457C73.9844 78.4531 83.4082 76.4512 94.6387 76.4512C108.408 76.4512 119.541 80.2598 128.037 87.877C136.631 95.4941 140.928 107.945 140.928 125.23V214H90.5371V134.605C90.5371 126.988 88.9258 121.568 85.7031 118.346C82.5781 115.123 78.1348 113.512 72.373 113.512C67.3926 113.512 62.9492 115.074 59.043 118.199C55.2344 121.227 52.3047 125.084 50.2539 129.771V214H0.00976562ZM172.334 148.961V144.273C172.334 123.863 179.316 107.359 193.281 94.7617C207.344 82.1641 225.996 75.8652 249.238 75.8652C272.578 75.8652 291.182 82.1641 305.049 94.7617C319.014 107.359 325.996 123.863 325.996 144.273V148.961C325.996 169.566 319.014 186.119 305.049 198.619C291.182 211.119 272.578 217.369 249.238 217.369C225.898 217.369 207.246 211.119 193.281 198.619C179.316 186.119 172.334 169.566 172.334 148.961ZM223.164 142.662V150.426C223.164 159.898 225.361 167.662 229.756 173.717C234.15 179.674 240.596 182.652 249.092 182.652C257.686 182.652 264.18 179.674 268.574 173.717C273.066 167.662 275.312 159.85 275.312 150.279V142.662C275.312 133.287 273.066 125.719 268.574 119.957C264.18 114.098 257.686 111.168 249.092 111.168C240.596 111.168 234.15 114.098 229.756 119.957C225.361 125.719 223.164 133.287 223.164 142.662ZM348.467 116.148V80.1133H448.223V116.148H348.467ZM369.414 171.812V86.2656L370.879 84.6543V34.9961H418.779V158.775C418.779 168.639 420 174.938 422.441 177.672C424.883 180.406 428.887 181.773 434.453 181.773C437.09 181.773 439.531 181.627 441.777 181.334C444.121 180.943 446.367 180.357 448.516 179.576V213.121C445.684 214 441.387 214.83 435.625 215.611C429.863 216.49 422.539 216.93 413.652 216.93C399.297 216.93 388.311 213.414 380.693 206.383C373.174 199.254 369.414 187.73 369.414 171.812Z" fill="#222E42"/>
<path d="M479.482 214V0.71875H530.312V214H479.482ZM562.744 148.814V144.127C562.744 123.326 569.531 106.773 583.105 94.4688C596.68 82.1641 614.941 76.0117 637.891 76.0117C660.352 76.0117 677.637 81.9688 689.746 93.8828C701.855 105.699 707.91 121.959 707.91 142.662V155.846H588.965V131.383H659.424V130.504C659.424 124.645 657.617 119.811 654.004 116.002C650.488 112.193 644.971 110.289 637.451 110.289C629.346 110.289 623.193 113.121 618.994 118.785C614.893 124.449 612.842 131.09 612.842 138.707V149.107C612.842 159.947 615.088 168.297 619.58 174.156C624.17 179.918 630.664 182.799 639.062 182.799C645.41 182.799 650.635 181.578 654.736 179.137C658.936 176.598 662.158 173.131 664.404 168.736L707.031 178.99C702.637 191.1 695.068 200.523 684.326 207.262C673.584 214 658.643 217.369 639.502 217.369C615.088 217.369 596.191 211.266 582.812 199.059C569.434 186.852 562.744 170.104 562.744 148.814ZM740.049 214V80.1133H791.025V98.8633H791.172C795.078 92.6133 800.107 87.5352 806.26 83.6289C812.412 79.7227 819.443 77.7695 827.354 77.7695C830.381 77.7695 833.213 77.9648 835.85 78.3555C838.486 78.6484 840.293 78.9902 841.27 79.3809V115.855C839.414 115.172 837.168 114.635 834.531 114.244C831.895 113.854 828.965 113.658 825.742 113.658C819.395 113.658 813.047 115.709 806.699 119.811C800.449 123.814 795.469 129.234 791.758 136.07V214H740.049Z" fill="#E2EDFF"/>
</svg>
