<svg width="1097" height="183" viewBox="0 0 1097 183" fill="none" xmlns="http://www.w3.org/2000/svg">
<path d="M0.772462 180V3.49999H40.0225V180H0.772462ZM110.022 180V3.49999H149.522V180H110.022ZM24.2725 106.25V72.25H123.022V106.25H24.2725ZM292.64 183C279.306 183 266.973 180.667 255.64 176C244.473 171.333 234.64 164.833 226.14 156.5C217.64 148.167 211.056 138.5 206.39 127.5C201.723 116.333 199.39 104.333 199.39 91.5C199.39 78.5 201.723 66.5 206.39 55.5C211.056 44.5 217.556 34.9167 225.89 26.75C234.223 18.4167 243.973 12 255.14 7.49999C266.473 2.83332 278.806 0.499986 292.14 0.499986C305.306 0.499986 317.473 2.83332 328.64 7.49999C339.973 12 349.806 18.4167 358.14 26.75C366.64 34.9167 373.223 44.5833 377.89 55.75C382.556 66.75 384.89 78.75 384.89 91.75C384.89 104.583 382.556 116.583 377.89 127.75C373.223 138.75 366.723 148.417 358.39 156.75C350.056 164.917 340.223 171.333 328.89 176C317.723 180.667 305.64 183 292.64 183ZM292.14 147.25C302.64 147.25 311.806 144.917 319.64 140.25C327.64 135.583 333.806 129.083 338.14 120.75C342.473 112.25 344.64 102.5 344.64 91.5C344.64 83.1667 343.39 75.6667 340.89 69C338.39 62.1667 334.806 56.3333 330.14 51.5C325.473 46.5 319.89 42.75 313.39 40.25C307.056 37.5833 299.973 36.25 292.14 36.25C281.64 36.25 272.39 38.5833 264.39 43.25C256.556 47.75 250.473 54.1667 246.14 62.5C241.806 70.6667 239.64 80.3333 239.64 91.5C239.64 99.8333 240.89 107.417 243.39 114.25C245.89 121.083 249.39 127 253.89 132C258.556 136.833 264.14 140.583 270.64 143.25C277.14 145.917 284.306 147.25 292.14 147.25ZM468.778 180V5.99999H508.028V180H468.778ZM413.528 37.75V3.49999H563.278V37.75H413.528Z" fill="#222E42"/>
<path d="M610.196 180V3.49999H649.446V180H610.196ZM640.446 180V145.5H727.696V180H640.446ZM775.333 180V3.49999H814.583V180H775.333ZM805.333 180V146H902.083V180H805.333ZM805.333 106.25V73.5H893.333V106.25H805.333ZM805.333 37.25V3.49999H900.833V37.25H805.333ZM984.142 107.25V78.25H1021.39C1029.22 78.25 1035.22 76.25 1039.39 72.25C1043.72 68.25 1045.89 62.8333 1045.89 56C1045.89 49.6667 1043.81 44.4167 1039.64 40.25C1035.47 36.0833 1029.47 34 1021.64 34H984.142V3.49999H1026.14C1037.81 3.49999 1048.06 5.74999 1056.89 10.25C1065.72 14.5833 1072.64 20.6667 1077.64 28.5C1082.64 36.3333 1085.14 45.3333 1085.14 55.5C1085.14 65.8333 1082.64 74.9167 1077.64 82.75C1072.64 90.4167 1065.64 96.4167 1056.64 100.75C1047.64 105.083 1037.06 107.25 1024.89 107.25H984.142ZM954.142 180V3.49999H993.392V180H954.142ZM1050.14 180L995.142 104L1031.14 94.25L1096.64 180H1050.14Z" fill="#E2EDFF"/>
</svg>
